<svg width="606" height="46" viewBox="0 0 606 46" fill="none" xmlns="http://www.w3.org/2000/svg">
<path d="M50.2857 9.4586C48.6766 9.65732 34.1943 9.70701 27.1543 9.70701V10.4522C29.4172 10.4522 30.1715 11.6943 30.1715 12.9363C30.2553 20.2229 30.1715 35.293 30.1715 37.0318C30.1715 38.7298 27.6572 38.7707 27.1543 38.7707L27.1543 39.1487C27.1543 39.3503 27.3186 39.5127 27.5202 39.5088C31.8494 39.4268 40.4532 39.3228 42.9943 39.5159C44.684 39.6443 48.0744 39.918 50.2621 40.0955C51.3799 40.1862 52.3528 39.3433 52.4257 38.2242C52.6092 35.4089 52.9557 30.4299 53.2436 28.2533C53.2726 28.034 53.0991 27.8408 52.8778 27.8408V27.8408C52.6926 27.8408 52.5353 27.9829 52.5115 28.1666C51.7383 34.1258 46.0446 37.5463 43.2457 38.5223H38.72C37.9154 38.5223 37.7143 37.5287 37.7143 37.0318V25.6051C37.7143 24.6115 38.4686 24.6115 38.72 24.6115H42.24C43.1931 25.3177 44.8236 27.5855 45.4196 29.0894C45.4765 29.233 45.6126 29.3312 45.7671 29.3312H45.8851C46.0907 29.3312 46.2546 29.1593 46.2447 28.9539L45.7765 19.2408C45.7673 19.0489 45.609 18.8981 45.4169 18.8981H45.3101C45.1344 18.8981 44.9856 19.0248 44.933 19.1925C44.5435 20.4354 43.0134 22.4525 42.24 23.3694C40.9829 23.3694 39.4743 23.3694 38.72 23.3694C37.8907 23.3694 37.7143 22.8726 37.7143 22.6242C37.7143 20.3885 37.5131 13.3834 37.7143 12.1911C37.9154 10.9987 38.301 10.7006 38.4686 10.7006H42.4914C47.7843 11.088 50.6413 18.1133 51.4813 21.8426C51.5188 22.0091 51.6653 22.1274 51.836 22.1274H51.8472C52.0779 22.1274 52.2505 21.9151 52.2106 21.6879C51.7382 19.0006 51.2914 11.8713 51.2914 10.7006C51.2914 9.70701 50.621 9.4586 50.2857 9.4586Z" fill="white"/>
<path d="M66.9881 9.84046C66.9197 9.75605 66.8169 9.70701 66.7083 9.70701H56.1771C55.9783 9.70701 55.8171 9.86818 55.8171 10.067V10.0922C55.8171 10.2911 55.9787 10.4504 56.1768 10.4677C57.9494 10.6222 58.8497 11.8955 59.0857 12.4395C59.0019 20.0573 58.8343 35.5911 58.8343 36.7834C58.8343 37.8864 57.4 38.6493 56.5216 38.9541C56.4026 38.9954 56.32 39.1055 56.32 39.2315V39.2315C56.32 39.3886 56.4474 39.5159 56.6044 39.5159H62.8602C62.9974 39.5159 63.1086 39.4047 63.1086 39.2675V39.2675C63.1086 39.1303 62.9967 39.0204 62.8602 39.007C61.4059 38.8642 60.581 37.4894 60.3429 36.7834V14.905C60.3429 14.5706 60.7592 14.4169 60.9765 14.6711L82.1094 39.3899C82.1778 39.4699 82.2778 39.5159 82.383 39.5159H82.6115C82.8103 39.5159 82.9715 39.3547 82.9715 39.1559V12.9363C82.9715 11.6723 84.6322 10.7911 85.6901 10.5164C85.8607 10.4722 85.9886 10.3229 85.9886 10.1467V10.067C85.9886 9.86818 85.8274 9.70701 85.6286 9.70701H79.3086C79.1098 9.70701 78.9486 9.86818 78.9486 10.067V10.0922C78.9486 10.2911 79.1117 10.4513 79.3048 10.4985C80.4814 10.7861 81.9657 12.3365 81.9657 12.9363V27.3209C81.9657 27.6602 81.5394 27.8111 81.326 27.5475L66.9881 9.84046Z" fill="white"/>
<path d="M69.3943 3.24841C66.5121 3.24841 64.5477 6.19532 64.3777 8.40784C64.3648 8.57661 64.503 8.71338 64.6722 8.71338V8.71338C64.7919 8.71338 64.9002 8.64351 64.953 8.5361C65.3933 7.64033 66.1734 6.47771 66.88 6.47771C68.1372 6.47771 70.9029 8.71338 74.6743 8.71338C78.4659 8.71338 80.024 5.40342 80.1906 3.35899C80.2067 3.16083 80.0446 3 79.8457 3H79.6301C79.5176 3 79.411 3.05205 79.349 3.14602C78.8726 3.86788 78.2928 5.23567 76.1829 5.23567C74.1715 5.23567 70.9029 3.24841 69.3943 3.24841Z" fill="white"/>
<path d="M14.5829 10.067C14.5829 9.86818 14.4217 9.70701 14.2229 9.70701H0.36C0.161178 9.70701 0 9.86818 0 10.067V10.0922C0 10.2911 0.161882 10.4509 0.360335 10.4631C2.39594 10.5874 3.52 11.7618 3.52 12.9363V37.0318C3.52 38.5195 1.31175 38.7344 0.358751 38.7655C0.160034 38.7719 0 38.9319 0 39.1307V39.1559C0 39.3547 0.155878 39.5159 0.354701 39.5159C3.46608 39.5163 14.4036 39.5261 16.0915 39.7643C17.6 39.9773 24.1372 40.2611 24.1372 40.2611C24.64 40.2611 24.8914 39.7643 24.8914 39.0191C24.8914 38.2739 24.64 32.8089 24.64 31.3185C24.64 29.9723 25.2554 26.5996 25.5597 25.4102C25.5981 25.2605 25.4856 25.1083 25.331 25.1083V25.1083C25.222 25.1083 25.1287 25.1859 25.1066 25.2927C24.8925 26.3264 24.2635 28.6466 23.8857 29.5796C23.037 31.6759 19.1086 38.7707 14.5829 38.7707H12.0686C11.5657 38.7707 11.0629 38.1248 11.0629 37.5287V12.9363C11.0629 11.7633 12.2291 10.5902 14.2226 10.4635C14.4211 10.4509 14.5829 10.2911 14.5829 10.0922V10.067Z" fill="white"/>
<path d="M202.903 9.4586C199.98 9.4586 192.575 9.76939 188.914 9.93938C188.722 9.9483 188.571 10.1066 188.571 10.2989V10.589C188.571 10.7879 188.733 10.949 188.931 10.949H190.08C190.885 10.949 191.337 11.4459 191.337 11.9427C191.421 19.9745 191.538 36.535 191.337 37.5287C191.167 38.3672 190.15 38.675 189.434 38.7507C189.236 38.7715 189.074 38.9319 189.074 39.1307V39.1559C189.074 39.3547 189.235 39.5159 189.434 39.5159H202.291C202.49 39.5159 202.651 39.3547 202.651 39.1559V39.1307C202.651 38.9319 202.49 38.7707 202.291 38.7707H201.897C199.886 38.7707 199.215 36.7834 199.131 35.7898V11.4459C199.131 10.651 199.802 10.4522 200.137 10.4522H203.154C204.663 10.4522 207.68 12.4395 207.68 17.9045C207.68 22.6281 203.74 24.5822 201.263 24.6208C201.062 24.6239 200.891 24.7829 200.891 24.9849V24.9849C200.891 25.1863 201.061 25.3458 201.262 25.333L208.686 24.8599C211.2 24.6943 216.229 22.9223 216.229 17.1592C216.229 9.95541 206.674 9.4586 202.903 9.4586Z" fill="white"/>
<path d="M202.811 25.8261C202.729 25.5954 202.903 25.3567 203.147 25.3567H210.897C211.072 25.3567 211.222 25.4852 211.253 25.6576C212.873 34.5782 217.519 39.6824 219.826 41.1482C219.933 41.2168 220 41.3333 220 41.4612V41.5868C220 41.8052 219.805 41.9733 219.589 41.9378C210.095 40.3767 204.576 30.8044 202.811 25.8261Z" fill="white"/>
<path fill-rule="evenodd" clip-rule="evenodd" d="M119.931 39.1559C119.931 39.3547 120.093 39.5159 120.291 39.5159H136.023C140.716 39.1019 150.354 35.9885 150.354 25.8535C150.354 14.1783 141.303 9.47764 136.023 9.47764C132.455 9.47764 129.72 9.34743 127.126 9.47764C124.892 9.58977 122.761 9.69669 120.292 9.7063C120.093 9.70708 119.931 9.86818 119.931 10.067V10.3406C119.931 10.5395 120.093 10.6992 120.29 10.7264C121.437 10.8846 123.2 11.8153 123.2 14.6752V36.2866C123.2 36.9902 122.259 38.5795 120.292 38.7549C120.093 38.7726 119.931 38.9319 119.931 39.1307V39.1559ZM134.263 10.7006C133.336 10.4717 132.251 10.4522 131.497 10.4522C130.743 10.4522 130.743 10.949 130.743 11.4459C130.743 11.9427 130.743 37.5287 130.743 37.5287C130.743 38.9197 130.994 38.7707 131.497 38.7707H134.263C137.531 38.7707 141.806 35.7898 142.057 24.6115C142.258 15.6688 137.28 11.4459 134.263 10.7006Z" fill="white"/>
<path fill-rule="evenodd" clip-rule="evenodd" d="M169.463 9.70701C163.848 9.70701 152.667 12.7376 152.869 25.8535C153.07 38.9694 165.691 41.7516 172.48 40.0127C177.834 38.6412 186.258 34.8459 186.057 24.1147C185.871 14.1783 177.257 9.70701 169.463 9.70701ZM162.674 29.0828C159.043 22.6242 158.275 13.3831 163.177 11.4459C166.949 9.95541 171.984 12.9363 176.251 21.1338C180.777 29.828 179.269 36.535 176.251 38.0255C172.48 39.8885 168.122 38.7707 162.674 29.0828Z" fill="white"/>
<path fill-rule="evenodd" clip-rule="evenodd" d="M86.9943 39.1559C86.9943 39.3547 87.1555 39.5159 87.3543 39.5159H93.9257C94.1246 39.5159 94.2857 39.3547 94.2857 39.1559V39.1307C94.2857 38.9319 94.1248 38.7698 93.9264 38.7578C93.2571 38.7173 92.2593 38.5911 91.7715 38.5223C91.0172 38.0255 90.7657 37.479 90.7657 36.2866C90.7657 35.2189 91.3034 34.0715 91.6565 33.4865C91.7249 33.3733 91.853 33.3149 91.9852 33.3184C94.2135 33.3775 101.234 31.6386 104.543 30.4374C104.716 30.3745 104.909 30.4496 104.992 30.6139L107.109 34.7962C107.36 35.293 107.36 35.7898 107.36 36.2866C107.36 36.7834 107.36 37.5287 106.857 38.0255C106.46 38.4181 105.276 38.7257 104.303 38.9668C104.179 38.9976 104.091 39.1091 104.091 39.2373V39.2373C104.091 39.3912 104.216 39.5159 104.37 39.5159H117.811C118.01 39.5159 118.171 39.3547 118.171 39.1559V39.1307C118.171 38.9319 118.009 38.7739 117.812 38.7451C116.837 38.6025 116.31 37.8995 116.16 37.5287L104.684 10.1693C104.629 10.039 104.504 9.95278 104.362 9.94868L96.4162 9.71777C96.2134 9.71188 96.0457 9.8747 96.0457 10.0776V10.3141C96.0457 10.403 96.0786 10.4888 96.1381 10.5549L98.0572 12.6879C98.4595 13.0854 98.3924 14.6752 98.3086 15.4204C95.4591 22.1274 89.6594 35.8395 89.2572 37.0318C88.9153 38.0451 87.944 38.5321 87.2999 38.7064C87.1268 38.7533 86.9943 38.9041 86.9943 39.0835V39.1559ZM103.97 29.4496C104.172 29.3862 104.272 29.1636 104.191 28.9689L99.1495 16.9702C99.0251 16.6741 98.6045 16.6768 98.4839 16.9746L92.4748 31.817C92.3789 32.0537 92.5502 32.3064 92.8042 32.2801C95.2 32.0315 100.969 30.3946 103.97 29.4496Z" fill="white"/>
<path d="M283.345 13H281.499C279.908 13 278.954 14.7677 279.827 16.0977L284.27 22.8649L279.271 29.8343C278.322 31.1576 279.268 33 280.896 33H282.552C283.695 33 286.282 29.488 287.636 27.528C288.049 26.9305 288.951 26.9305 289.364 27.528C290.718 29.488 293.305 33 294.448 33H296.062C297.699 33 298.643 31.1419 297.678 29.8204L292.598 22.8649L297.201 16.1284C298.108 14.801 297.158 13 295.55 13H293.787C292.703 13 290.629 16.0961 289.426 18.0541C289.013 18.7265 288 18.7191 287.597 18.0409C286.432 16.0822 284.427 13 283.345 13Z" stroke="white"/>
<path d="M367.408 33H370.068V16.432H377.516V14H370.068V10.656C370.068 7.502 371.74 6.476 373.906 6.476C375.046 6.476 376.262 6.742 377.478 7.578L378.58 6.058C377.364 4.842 375.806 4.044 373.602 4.044C369.726 4.044 367.408 6.4 367.408 10.2V14H363.456V16.432H367.408V33ZM382.657 9.896C383.683 9.896 384.519 9.098 384.519 8.034C384.519 6.97 383.683 6.172 382.657 6.172C381.631 6.172 380.795 6.97 380.795 8.034C380.795 9.098 381.631 9.896 382.657 9.896ZM381.327 33H383.987V14H381.327V33ZM389.9 33H392.56V23.348C392.56 18.75 395.448 15.976 398.944 15.976C401.604 15.976 404.416 17.572 404.416 21.372V33H407.076V21.372C407.076 16.204 403.656 13.544 399.248 13.544C395.904 13.544 393.852 15.292 392.56 17.42V14H389.9V33ZM421.041 33.456C424.461 33.456 427.197 31.632 428.565 29.58V33.38C428.565 38.586 424.613 40.524 421.421 40.524C417.849 40.524 415.417 38.7 413.821 37.332L412.453 38.928C414.201 40.828 416.785 42.956 421.573 42.956C426.285 42.956 431.225 40.6 431.225 33.38V14H428.565V17.42C427.197 15.368 424.461 13.544 421.041 13.544C415.721 13.544 411.541 17.8 411.541 23.5C411.541 29.2 415.721 33.456 421.041 33.456ZM421.421 31.024C417.241 31.024 414.277 27.832 414.277 23.5C414.277 19.168 417.241 15.976 421.421 15.976C425.601 15.976 428.565 19.168 428.565 23.5C428.565 27.832 425.601 31.024 421.421 31.024ZM445.88 33.456C449.338 33.456 451.96 32.392 454.012 30.91L452.948 29.238C450.896 30.454 448.426 31.1 446.298 31.1C442.004 31.1 439.078 28.478 438.584 24.678H455C455.076 24.298 455.076 23.956 455.076 23.5C455.076 16.964 450.896 13.544 445.728 13.544C440.18 13.544 435.848 17.8 435.848 23.5C435.848 29.2 439.914 33.456 445.88 33.456ZM438.584 22.322C439.078 18.522 441.928 15.9 445.728 15.9C449.376 15.9 452.226 18.37 452.454 22.322H438.584ZM459.554 33H462.214V23.348C462.214 18.75 464.722 16.052 468.218 16.052C469.51 16.052 470.878 16.394 472.018 17.23L473.386 15.368C471.98 14.228 470.27 13.544 468.37 13.544C465.33 13.544 463.43 15.102 462.214 17.42V14H459.554V33ZM491.326 33H493.986V21.372C493.986 16.204 490.566 13.544 486.158 13.544C482.814 13.544 480.762 15.292 479.47 17.42V4.5H476.81V33H479.47V23.348C479.47 18.75 482.358 15.976 485.854 15.976C488.514 15.976 491.326 17.572 491.326 21.372V33ZM516.396 14H513.736V23.652C513.736 28.25 510.848 31.024 507.352 31.024C504.692 31.024 501.88 29.428 501.88 25.628V14H499.22V25.628C499.22 30.796 502.64 33.456 507.048 33.456C510.392 33.456 512.444 31.708 513.736 29.58V33H516.396V14ZM528.69 33.456C532.262 33.456 536.746 32.05 536.746 27.87C536.746 23.69 532.376 22.854 528.842 22.208C527.132 21.904 523.598 21.296 523.598 18.978C523.598 16.926 526.258 15.9 528.994 15.9C531.198 15.9 533.25 16.584 534.922 17.876L535.834 16.166C534.01 14.456 531.692 13.544 528.956 13.544C525.536 13.544 521.014 15.026 521.014 19.092C521.014 23.082 525.536 23.994 528.614 24.564C530.704 24.944 534.162 25.324 534.162 27.87C534.162 30.302 530.78 31.1 528.538 31.1C527.018 31.1 524.32 30.758 521.85 29.238L520.786 30.91C523.256 32.848 526.106 33.456 528.69 33.456ZM539.029 16.432H542.943V27.224C542.943 31.29 545.071 33.456 548.757 33.456C550.657 33.456 552.709 32.886 554.457 31.366L553.583 29.808C552.177 30.568 550.619 31.024 549.175 31.024C546.667 31.024 545.603 29.542 545.603 27.3V16.432H553.621V14H545.603V7.35H542.943V14H539.029V16.432ZM562.258 33.38C564.12 33.38 565.336 32.696 566.4 31.442L565.336 30.036C564.538 30.644 563.702 31.024 562.79 31.024C561.042 31.024 560.776 29.656 560.776 27.148V4.5H558.116V27.756C558.116 31.138 558.914 33.38 562.258 33.38ZM577.952 33.456C581.41 33.456 584.032 32.392 586.084 30.91L585.02 29.238C582.968 30.454 580.498 31.1 578.37 31.1C574.076 31.1 571.15 28.478 570.656 24.678H587.072C587.148 24.298 587.148 23.956 587.148 23.5C587.148 16.964 582.968 13.544 577.8 13.544C572.252 13.544 567.92 17.8 567.92 23.5C567.92 29.2 571.986 33.456 577.952 33.456ZM570.656 22.322C571.15 18.522 574 15.9 577.8 15.9C581.448 15.9 584.298 18.37 584.526 22.322H570.656ZM591.626 33H594.286V23.348C594.286 18.75 596.794 16.052 600.29 16.052C601.582 16.052 602.95 16.394 604.09 17.23L605.458 15.368C604.052 14.228 602.342 13.544 600.442 13.544C597.402 13.544 595.502 15.102 594.286 17.42V14H591.626V33Z" fill="white" fill-opacity="0.5"/>
</svg>
