<svg width="553" height="169" viewBox="0 0 553 169" fill="none" xmlns="http://www.w3.org/2000/svg">
<path d="M59.6571 47.1883C57.7481 47.4267 40.5669 47.4863 32.2149 47.4863V48.3803C34.8995 48.3803 35.7943 49.8702 35.7943 51.3601C35.8937 60.1012 35.7943 78.1792 35.7943 80.2651C35.7943 82.3019 32.8115 82.351 32.2149 82.351L32.2149 82.8777C32.2149 83.0793 32.3775 83.2417 32.5791 83.2378C37.6918 83.1392 47.9785 83.0123 51.0069 83.245C53.1113 83.4067 57.4394 83.7604 60.0058 83.9712C61.1247 84.0631 62.0985 83.2208 62.17 82.1004C62.3816 78.7838 62.8195 72.3221 63.1772 69.6517C63.2066 69.4326 63.0369 69.2395 62.8159 69.2395H62.6685C62.4832 69.2395 62.3285 69.3821 62.3058 69.5661C61.4208 76.7544 54.6356 80.8787 51.3051 82.053H45.936C44.9815 82.053 44.7429 80.8611 44.7429 80.2651V66.5576C44.7429 65.3656 45.6377 65.3656 45.936 65.3656H50.112C51.2526 66.2202 53.2108 68.9808 53.9024 70.7843C53.9578 70.929 54.0942 71.0274 54.2491 71.0274H54.507C54.7126 71.0274 54.8764 70.8556 54.8666 70.6503L54.3043 58.8547C54.2952 58.6628 54.1369 58.5119 53.9448 58.5119H53.6981C53.5221 58.5119 53.3732 58.6394 53.324 58.8083C52.8913 60.294 51.0413 62.7616 50.112 63.8757C48.6206 63.8757 46.8309 63.8757 45.936 63.8757C44.9521 63.8757 44.7429 63.2797 44.7429 62.9817C44.7429 60.2998 44.5042 51.8965 44.7429 50.4662C44.9815 49.0358 45.4389 48.6782 45.6377 48.6782H50.4103C56.7164 49.1449 60.1079 57.6427 61.0882 62.1013C61.1249 62.2683 61.2713 62.3857 61.4423 62.3857H61.5946C61.8249 62.3857 61.9976 62.1765 61.9569 61.9498C61.3905 58.7995 60.8503 50.0961 60.8503 48.6782C60.8503 47.4863 60.0549 47.1883 59.6571 47.1883Z" fill="white"/>
<path d="M79.4521 47.6213C79.3838 47.5359 79.2804 47.4863 79.1711 47.4863H66.5794C66.3806 47.4863 66.2194 47.6475 66.2194 47.8463V48.0203C66.2194 48.2191 66.3816 48.3788 66.5798 48.3934C68.7266 48.5521 69.8143 50.1048 70.0971 50.7642C69.9977 59.9025 69.7989 78.5368 69.7989 79.9671C69.7989 81.2894 68.0994 82.2042 67.0571 82.5703C66.9147 82.6203 66.816 82.7524 66.816 82.9033C66.816 83.092 66.969 83.245 67.1577 83.245H74.5717C74.7363 83.245 74.8697 83.1116 74.8697 82.947C74.8697 82.7824 74.7355 82.6506 74.5718 82.6342C72.8485 82.4611 71.871 80.8134 71.5886 79.9671V53.5355C71.5886 53.2 72.0069 53.0469 72.2235 53.303L97.4316 83.1174C97.5 83.1983 97.6006 83.245 97.7065 83.245H98.0743C98.2731 83.245 98.4343 83.0838 98.4343 82.885V51.3601C98.4343 49.8209 100.465 48.7549 101.716 48.4428C101.887 48.4003 102.014 48.2512 102.014 48.0752V47.8463C102.014 47.6475 101.853 47.4863 101.654 47.4863H94.0217C93.8229 47.4863 93.6617 47.6475 93.6617 47.8463V48.0203C93.6617 48.2191 93.8239 48.3789 94.0183 48.4205C95.424 48.7216 97.2412 50.6292 97.2412 51.3601V68.81C97.2412 69.1502 96.8128 69.3006 96.6002 69.035L79.4521 47.6213Z" fill="white"/>
<path d="M82.3269 39.7386C78.9043 39.7386 76.5725 43.2805 76.3748 45.9354C76.36 46.1337 76.5253 46.2943 76.7241 46.2943C76.8652 46.2943 76.9947 46.2116 77.0564 46.0847C77.5785 45.0097 78.505 43.6124 79.344 43.6124C80.8355 43.6124 84.1166 46.2943 88.5909 46.2943C93.1335 46.2943 94.9738 42.2448 95.1406 39.7989C95.1541 39.6006 94.992 39.4406 94.7932 39.4406H94.4382C94.325 39.4406 94.2178 39.4932 94.1552 39.5876C93.5864 40.4456 92.9111 42.1225 90.3806 42.1225C87.9943 42.1225 84.1166 39.7386 82.3269 39.7386Z" fill="white"/>
<path d="M17.3006 47.8463C17.3006 47.6475 17.1394 47.4863 16.9406 47.4863H0.36C0.161178 47.4863 0 47.6475 0 47.8463V48.0203C0 48.2191 0.162128 48.3792 0.360685 48.3895C2.81785 48.5165 4.176 49.9383 4.176 51.3601V80.2651C4.176 82.0854 1.45027 82.3172 0.359534 82.3467C0.160784 82.3521 0 82.5122 0 82.711V82.885C0 83.0838 0.157825 83.245 0.356647 83.245C3.95903 83.2453 17.0761 83.2555 19.0903 83.543C20.88 83.7984 28.6355 84.1389 28.6355 84.1389C29.232 84.1389 29.5303 83.543 29.5303 82.649C29.5303 81.755 29.232 75.1993 29.232 73.4113C29.232 71.7948 29.9635 67.7425 30.3242 66.3196C30.3693 66.1419 30.2359 65.9616 30.0526 65.9616C29.9229 65.9616 29.8119 66.0541 29.7859 66.1812C29.5322 67.4204 28.7855 70.2057 28.3372 71.3254C27.3303 73.8401 22.6697 82.351 17.3006 82.351H14.3177C13.7212 82.351 13.1246 81.5762 13.1246 80.8611V51.3601C13.1246 49.9398 14.5342 48.5194 16.94 48.3899C17.1385 48.3792 17.3006 48.2191 17.3006 48.0203V47.8463Z" fill="white"/>
<path d="M240.717 47.1883C237.232 47.1883 228.374 47.5649 224.055 47.7681C223.863 47.7772 223.714 47.9354 223.714 48.1276V48.6162C223.714 48.8151 223.875 48.9762 224.074 48.9762H225.504C226.459 48.9762 226.995 49.5722 226.995 50.1682C227.095 59.8032 227.234 79.6691 226.995 80.8611C226.789 81.8938 225.522 82.2554 224.67 82.3336C224.472 82.3518 224.311 82.5122 224.311 82.711V82.885C224.311 83.0838 224.472 83.245 224.671 83.245H240.058C240.257 83.245 240.418 83.0838 240.418 82.885V82.711C240.418 82.5122 240.257 82.351 240.058 82.351H239.523C237.137 82.351 236.342 79.9671 236.242 78.7751V49.5722C236.242 48.6186 237.038 48.3803 237.435 48.3803H241.015C242.805 48.3803 246.384 50.7642 246.384 57.3199C246.384 63.0234 241.649 65.361 238.714 65.3774C238.506 65.3786 238.33 65.5427 238.33 65.7513V65.8756C238.33 66.0836 238.506 66.2483 238.713 66.2349L247.577 65.6636C250.56 65.465 256.526 63.3393 256.526 56.426C256.526 47.7843 245.191 47.1883 240.717 47.1883Z" fill="white"/>
<path d="M240.574 66.7254C240.494 66.4946 240.668 66.2596 240.913 66.2596H250.256C250.432 66.2596 250.582 66.3886 250.613 66.5614C252.533 77.3448 258.099 83.4936 260.828 85.2253C260.935 85.2934 261 85.4089 261 85.5361V85.811C261 86.0297 260.804 86.1977 260.588 86.1627C249.217 84.319 242.635 72.6822 240.574 66.7254Z" fill="white"/>
<path d="M72.1851 94.3326C72.1851 94.1338 72.3463 93.9726 72.5451 93.9726H94.1947C94.3942 93.9726 94.5558 94.1261 94.5547 94.3257C94.4584 112.925 94.5566 150.307 94.5566 153.868C94.5566 156.848 96.9429 159.232 98.136 159.53C103.803 159.828 116.868 160.722 136.913 156.55C158.39 152.08 166.443 140.757 169.725 131.519C171.231 127.279 175.808 107.727 178.019 96.9373C178.053 96.7697 178.199 96.6545 178.371 96.6545H178.865C179.081 96.6545 179.249 96.8356 179.224 97.0494C178.795 100.74 175.499 129.149 175.094 133.605C174.85 136.287 173.901 150.888 174.795 160.722C174.795 162.808 174.199 164 170.321 164C164.057 164 150.933 162.212 136.317 162.212C132.872 162.212 60.3777 162.212 54.9119 162.212C54.713 162.212 54.5863 162.051 54.5863 161.852V160.539C54.5863 160.32 54.7852 160.153 55.0018 160.179C67.8055 161.693 72.1851 151.393 72.1851 142.843V94.3326Z" fill="white"/>
<path d="M115.138 1.36C115.138 1.16118 114.977 1 114.778 1H54.648C54.4492 1 54.288 1.16118 54.288 1.36V1.76984C54.288 1.99133 54.4848 2.16017 54.7045 2.13228C62.1276 1.18984 72.1851 6.29718 72.1851 18.5814V35.2067C72.1851 35.4056 72.3463 35.5667 72.5451 35.5667H94.1966C94.3954 35.5667 94.5566 35.4056 94.5566 35.2067V18.5814C95.2594 4.30592 107.23 1.11524 114.724 2.13075C114.943 2.16049 115.138 1.99133 115.138 1.76984V1.36Z" fill="white"/>
<path fill-rule="evenodd" clip-rule="evenodd" d="M142.282 82.885C142.282 83.0838 142.443 83.245 142.642 83.245H161.373C166.941 82.7483 178.375 79.0135 178.375 66.8556C178.375 52.8501 167.637 47.2111 161.373 47.2111C157.14 47.2111 153.896 47.0549 150.818 47.2111C148.147 47.3467 145.601 47.4759 142.643 47.4857C142.444 47.4864 142.282 47.6475 142.282 47.8463V48.3182C142.282 48.5171 142.443 48.6769 142.641 48.7005C143.999 48.8628 146.16 49.9588 146.16 53.4461V79.3711C146.16 80.2231 145.022 82.1578 142.643 82.3376C142.445 82.3525 142.282 82.5122 142.282 82.711V82.885ZM159.285 48.6782C158.185 48.4036 156.898 48.3803 156.003 48.3803C155.109 48.3803 155.109 48.9762 155.109 49.5722C155.109 50.1682 155.109 80.8611 155.109 80.8611C155.109 82.5298 155.407 82.351 156.003 82.351H159.285C163.162 82.351 168.233 78.7751 168.531 65.3656C168.77 54.638 162.864 49.5722 159.285 48.6782Z" fill="white"/>
<path fill-rule="evenodd" clip-rule="evenodd" d="M201.045 47.4863C194.383 47.4863 181.119 51.1218 181.358 66.8556C181.596 82.5894 196.57 85.9269 204.624 83.841C210.976 82.1957 220.97 77.6428 220.731 64.7697C220.51 52.8501 210.291 47.4863 201.045 47.4863ZM192.991 70.7294C188.682 62.9817 187.772 51.8961 193.587 49.5722C198.062 47.7843 204.036 51.3601 209.098 61.1938C214.467 71.6234 212.678 79.6691 209.098 81.457C204.624 83.6919 199.454 82.351 192.991 70.7294Z" fill="white"/>
<path fill-rule="evenodd" clip-rule="evenodd" d="M103.207 82.885C103.207 83.0838 103.368 83.245 103.567 83.245H111.497C111.696 83.245 111.857 83.0838 111.857 82.885V82.711C111.857 82.5122 111.696 82.3504 111.498 82.3394C110.705 82.2956 109.47 82.138 108.874 82.053C107.979 81.457 107.681 80.8015 107.681 79.3711C107.681 78.0689 108.34 76.6679 108.759 75.9776C108.828 75.8638 108.955 75.8045 109.088 75.8092C111.699 75.903 120.16 73.7826 124.082 72.3337C124.256 72.2694 124.448 72.3457 124.531 72.5114L127.07 77.5832C127.368 78.1792 127.368 78.7751 127.368 79.3711C127.368 79.9671 127.368 80.8611 126.771 81.457C126.3 81.9277 124.898 82.2966 123.744 82.5857C123.595 82.623 123.49 82.7568 123.49 82.9103C123.49 83.0952 123.64 83.245 123.825 83.245H139.834C140.033 83.245 140.194 83.0838 140.194 82.885V82.711C140.194 82.5122 140.032 82.3536 139.835 82.3293C138.635 82.1814 137.99 81.3144 137.808 80.8611L124.176 47.9993C124.122 47.8685 123.996 47.7816 123.854 47.7774L114.316 47.4972C114.113 47.4912 113.945 47.6541 113.945 47.857V48.2433C113.945 48.3315 113.978 48.4167 114.036 48.4826L116.331 51.0622C116.809 51.5389 116.729 53.4461 116.63 54.34C113.249 62.3857 106.369 78.8347 105.891 80.2651C105.476 81.5111 104.275 82.0938 103.513 82.289C103.339 82.3334 103.207 82.4841 103.207 82.6633V82.885ZM123.418 71.1467C123.618 71.0828 123.72 70.8612 123.639 70.6671L117.565 56.049C117.441 55.7511 117.018 55.7538 116.898 56.0533L109.669 74.1095C109.574 74.346 109.747 74.5986 110.001 74.5747C112.799 74.3111 119.837 72.2898 123.418 71.1467Z" fill="white"/>
<path d="M408.514 14.7213H398.54C397.667 14.7213 397.213 13.6797 397.808 13.0401L405.691 4.56847C405.88 4.36516 406.146 4.24968 406.423 4.24968H451.424C452.31 4.24968 452.758 5.31708 452.138 5.94982L444.708 13.5269C444.525 13.7139 444.422 13.9652 444.422 14.227V94.9984C444.422 95.2709 444.533 95.5316 444.73 95.7202L447.061 97.955C447.696 98.5646 448.753 98.114 448.753 97.2332V15.1404C448.753 14.8723 448.86 14.6154 449.051 14.4275L459.107 4.53675C459.294 4.35278 459.546 4.24968 459.808 4.24968H499.438C500.347 4.24968 500.784 5.36375 500.118 5.98228L492.199 13.3406C491.995 13.5302 491.879 13.787 491.879 14.0656C491.938 47.0378 491.879 107.249 491.879 119.618C491.879 136.321 480.06 158.071 462.607 160.847C461.595 161.008 461.079 159.545 461.786 158.803C468.505 151.739 471.308 135.821 471.308 123.409V24.8992C471.308 24.6256 471.42 24.3639 471.618 24.1752L480.15 16.047C480.871 15.4435 480.871 14.7213 480.15 14.7213H465.714C465.173 14.7213 464.632 15.4435 464.632 16.047V124.454C464.632 125.343 463.558 125.774 462.927 125.147L428.478 90.9409C428.289 90.7532 428.182 90.4977 428.182 90.2313V17.8702C428.182 17.0043 427.156 16.5448 426.514 17.1266C423.085 20.2379 418.834 24.3406 417.238 28.4566C417.196 28.5671 417.175 28.6839 417.175 28.8024V91.5694C417.175 91.8411 417.286 92.1011 417.481 92.2896L435.925 110.061C436.33 110.45 436.334 111.097 435.935 111.492L421.676 125.594C421.283 125.983 420.65 125.979 420.261 125.586L391.348 96.3124C390.962 95.9213 390.964 95.2916 391.352 94.9028L400.462 85.7878C400.65 85.6003 400.755 85.3461 400.755 85.0809V26.7962C400.755 26.5761 400.826 26.3634 400.961 26.1893C403.629 22.7453 408.984 16.3792 409.236 15.624C409.416 15.0824 409.236 14.7213 408.514 14.7213Z" fill="url(#paint0_linear_155_3)" fill-opacity="0.86"/>
<path d="M418.743 11.8693H406.016L416.123 1H465.723L455.99 10.9323V95.6376L460.482 99.9478V11.8693L471.525 1H515.697L505.216 10.7449C505.278 44.8697 505.216 107.855 505.216 120.749C505.216 139.302 491.178 163.852 470.964 163.852C480.135 158.604 483.878 139.302 483.878 124.685V21.989L493.05 13.2453C493.798 12.6189 493.798 11.8693 493.05 11.8693H478.076C477.515 11.8693 476.953 12.6189 476.953 13.2453V128.245L439.145 90.6788V12.8063C435.402 16.1795 429.599 21.2393 427.728 26.2992V92.077L447.942 111.567L431.658 127.683L400.214 95.825L410.695 85.3306V24.0504C413.378 20.5522 419.224 13.6109 419.492 12.8063C419.679 12.2441 419.492 11.8693 418.743 11.8693Z" stroke="#C8C8C8" stroke-opacity="0.3" stroke-width="2"/>
<path d="M533.736 13.012C533.736 14.992 534.792 16.576 535.98 17.368C534.528 17.588 533.736 18.71 533.736 20.162C533.736 23.44 537.74 24.584 540.6 24.584C546.32 24.584 550.764 20.052 550.764 13.452C550.764 6.082 545.264 2.32 539.5 2.32C532.46 2.32 528.236 7.952 528.236 14.552C528.236 18.072 529.38 20.162 530.458 21.548L531.382 20.756C530.59 19.722 529.644 17.742 529.644 14.662C529.644 8.942 532.9 3.904 539.5 3.904C545.66 3.904 549.356 8.282 549.356 13.452C549.356 17.852 546.76 23 540.6 23C537.74 23 535.056 21.812 535.056 20.118C535.056 19.304 535.694 18.82 536.42 18.82H545V17.368H543.02C544.208 16.576 545.264 14.992 545.264 13.012C545.264 9.932 542.8 7.512 539.5 7.512C536.2 7.512 533.736 9.932 533.736 13.012ZM535.144 13.232C535.144 10.812 536.992 9.096 539.5 9.096C542.008 9.096 543.856 10.812 543.856 13.232C543.856 15.652 542.008 17.368 539.5 17.368C536.992 17.368 535.144 15.652 535.144 13.232ZM534 28.4524V29.9924H543.592V34.3044H545V29.9924H546.936C548.762 29.9924 549.356 30.9604 549.356 32.2144C549.356 32.8744 549.202 33.5784 548.718 34.2824L549.598 34.9204C550.302 34.2164 550.764 33.3144 550.764 32.0384C550.764 29.7944 549.4 28.4524 547.2 28.4524H545V26.1644H543.592V28.4524H534ZM547.376 37.2809C547.376 37.8749 547.838 38.3589 548.454 38.3589C549.07 38.3589 549.532 37.8749 549.532 37.2809C549.532 36.6869 549.07 36.2029 548.454 36.2029C547.838 36.2029 547.376 36.6869 547.376 37.2809ZM534 36.5109V38.0509H545V36.5109H534ZM534 41.4738V43.0138H539.588C542.25 43.0138 543.856 44.6858 543.856 46.7098C543.856 48.2498 542.932 49.8778 540.732 49.8778H534V51.4178H540.732C543.724 51.4178 545.264 49.4378 545.264 46.8858C545.264 44.9498 544.252 43.7618 543.02 43.0138H545V41.4738H534ZM533.736 59.5032C533.736 61.4832 534.792 63.0672 535.98 63.8592H533.78C530.766 63.8592 529.644 61.5712 529.644 59.7232C529.644 57.6552 530.7 56.2472 531.492 55.3232L530.568 54.5312C529.468 55.5432 528.236 57.0392 528.236 59.8112C528.236 62.5392 529.6 65.3992 533.78 65.3992H545V63.8592H543.02C544.208 63.0672 545.264 61.4832 545.264 59.5032C545.264 56.4232 542.8 54.0032 539.5 54.0032C536.2 54.0032 533.736 56.4232 533.736 59.5032ZM535.144 59.7232C535.144 57.3032 536.992 55.5872 539.5 55.5872C542.008 55.5872 543.856 57.3032 543.856 59.7232C543.856 62.1432 542.008 63.8592 539.5 63.8592C536.992 63.8592 535.144 62.1432 535.144 59.7232ZM533.736 73.8834C533.736 75.8854 534.352 77.4034 535.21 78.5914L536.178 77.9754C535.474 76.7874 535.1 75.3574 535.1 74.1254C535.1 71.6394 536.618 69.9454 538.818 69.6594V79.1634C539.038 79.2074 539.236 79.2074 539.5 79.2074C543.284 79.2074 545.264 76.7874 545.264 73.7954C545.264 70.5834 542.8 68.0754 539.5 68.0754C536.2 68.0754 533.736 70.4294 533.736 73.8834ZM540.182 69.6594C542.382 69.9454 543.9 71.5954 543.9 73.7954C543.9 75.9074 542.47 77.5574 540.182 77.6894V69.6594ZM534 81.8V83.34H539.588C542.25 83.34 543.812 84.792 543.812 86.816C543.812 87.564 543.614 88.356 543.13 89.016L544.208 89.808C544.868 88.994 545.264 88.004 545.264 86.904C545.264 85.144 544.362 84.044 543.02 83.34H545V81.8H534ZM534 100.194V101.734H540.732C543.724 101.734 545.264 99.7542 545.264 97.2022C545.264 95.2662 544.252 94.0782 543.02 93.3302H550.5V91.7902H534V93.3302H539.588C542.25 93.3302 543.856 95.0022 543.856 97.0262C543.856 98.5662 542.932 100.194 540.732 100.194H534ZM545 114.709V113.169H539.412C536.75 113.169 535.144 111.497 535.144 109.473C535.144 107.933 536.068 106.305 538.268 106.305H545V104.765H538.268C535.276 104.765 533.736 106.745 533.736 109.297C533.736 111.233 534.748 112.421 535.98 113.169H534V114.709H545ZM533.736 121.826C533.736 123.894 534.55 126.49 536.97 126.49C539.39 126.49 539.874 123.96 540.248 121.914C540.424 120.924 540.776 118.878 542.118 118.878C543.306 118.878 543.9 120.418 543.9 122.002C543.9 123.278 543.504 124.466 542.756 125.434L543.746 125.962C544.736 124.906 545.264 123.564 545.264 121.98C545.264 120 544.406 117.382 542.052 117.382C539.742 117.382 539.214 120 538.884 121.782C538.664 122.992 538.444 124.994 536.97 124.994C535.562 124.994 535.1 123.036 535.1 121.738C535.1 120.858 535.298 119.296 536.178 117.866L535.21 117.25C534.088 118.68 533.736 120.33 533.736 121.826ZM543.592 127.812V130.078H537.344C534.99 130.078 533.736 131.31 533.736 133.444C533.736 134.544 534.066 135.732 534.946 136.744L535.848 136.238C535.408 135.424 535.144 134.522 535.144 133.686C535.144 132.234 536.002 131.618 537.3 131.618H543.592V136.26H545V131.618H548.85V130.078H545V127.812H543.592ZM533.78 141.26C533.78 142.338 534.176 143.042 534.902 143.658L535.716 143.042C535.364 142.58 535.144 142.096 535.144 141.568C535.144 140.556 535.936 140.402 537.388 140.402H550.5V138.862H537.036C535.078 138.862 533.78 139.324 533.78 141.26ZM533.736 150.346C533.736 152.348 534.352 153.866 535.21 155.054L536.178 154.438C535.474 153.25 535.1 151.82 535.1 150.588C535.1 148.102 536.618 146.408 538.818 146.122V155.626C539.038 155.67 539.236 155.67 539.5 155.67C543.284 155.67 545.264 153.25 545.264 150.258C545.264 147.046 542.8 144.538 539.5 144.538C536.2 144.538 533.736 146.892 533.736 150.346ZM540.182 146.122C542.382 146.408 543.9 148.058 543.9 150.258C543.9 152.37 542.47 154.02 540.182 154.152V146.122ZM534 158.263V159.803H539.588C542.25 159.803 543.812 161.255 543.812 163.279C543.812 164.027 543.614 164.819 543.13 165.479L544.208 166.271C544.868 165.457 545.264 164.467 545.264 163.367C545.264 161.607 544.362 160.507 543.02 159.803H545V158.263H534Z" fill="white" fill-opacity="0.3"/>
<path d="M312.713 75.6778C311.575 76.9695 312.492 79 314.214 79H316.631C317.215 79 317.77 78.7447 318.15 78.3011L326 69.1371L333.85 78.3011C334.23 78.7447 334.785 79 335.369 79H337.786C339.508 79 340.425 76.9695 339.287 75.6778L329.878 65L339.287 54.3222C340.425 53.0305 339.508 51 337.786 51H335.369C334.785 51 334.23 51.2553 333.85 51.6989L326 60.8629L318.15 51.6989C317.77 51.2553 317.215 51 316.631 51H314.214C312.492 51 311.575 53.0305 312.713 54.3222L322.122 65L312.713 75.6778Z" stroke="white" stroke-width="2"/>
<defs>
<linearGradient id="paint0_linear_155_3" x1="436.937" y1="61.3424" x2="490.494" y2="-124.531" gradientUnits="userSpaceOnUse">
<stop stop-color="white"/>
<stop offset="1" stop-opacity="0"/>
</linearGradient>
</defs>
</svg>
