<svg width="200" height="125" viewBox="0 0 200 125" fill="none" xmlns="http://www.w3.org/2000/svg">
<path d="M45.7143 35.4205C44.2514 35.6033 31.0857 35.649 24.6857 35.649V36.3346C26.7429 36.3346 27.4286 37.4771 27.4286 38.6197C27.5048 45.323 27.4286 59.1865 27.4286 60.7861C27.4286 62.3481 25.1429 62.3857 24.6857 62.3857L24.6857 62.704C24.6857 62.9057 24.8512 63.068 25.0528 63.0641C28.9995 62.9888 36.7824 62.8942 39.0857 63.0713C40.5737 63.1857 43.5126 63.4255 45.503 63.5889C46.622 63.6808 47.598 62.837 47.6705 61.7166C47.8398 59.1004 48.1472 54.668 48.4035 52.7088C48.4298 52.5077 48.274 52.3309 48.0713 52.3309C47.9012 52.3309 47.7594 52.4615 47.7378 52.6302C47.0351 58.1126 41.8588 61.2594 39.3143 62.1572H35.2C34.4686 62.1572 34.2857 61.2431 34.2857 60.7861V50.2742C34.2857 49.3601 34.9715 49.3601 35.2 49.3601H38.4C39.2621 50.0066 40.734 52.0753 41.2824 53.4589C41.3395 53.6029 41.476 53.702 41.6309 53.702H41.6796C41.8851 53.702 42.049 53.5302 42.0392 53.3249L41.6163 44.4471C41.6072 44.2551 41.4489 44.1042 41.2567 44.1042H41.2192C41.0433 44.1042 40.8942 44.2315 40.8406 44.3991C40.4746 45.5443 39.0982 47.3799 38.4 48.2176C37.2572 48.2176 35.8857 48.2176 35.2 48.2176C34.4461 48.2176 34.2857 47.7605 34.2857 47.532C34.2857 45.4753 34.1029 39.0311 34.2857 37.9342C34.4686 36.8373 34.819 36.5631 34.9714 36.5631H38.6286C43.4394 36.9193 46.0366 43.38 46.8008 46.8112C46.8351 46.9653 46.9705 47.075 47.1284 47.075C47.3411 47.075 47.5004 46.8795 47.464 46.67C47.0346 44.1973 46.6286 37.6399 46.6286 36.5631C46.6286 35.649 46.0191 35.4205 45.7143 35.4205Z" fill="white"/>
<path d="M60.9081 35.7841C60.8398 35.6987 60.7364 35.649 60.627 35.649H51.0856C50.8963 35.649 50.7429 35.8025 50.7429 35.9918C50.7429 36.1811 50.8968 36.3327 51.0853 36.3502C52.6865 36.4984 53.5005 37.6639 53.7143 38.1627C53.6381 45.1706 53.4857 59.4607 53.4857 60.5576C53.4857 61.5716 52.1836 62.2731 51.3849 62.5539C51.2757 62.5923 51.2 62.6935 51.2 62.8092C51.2 62.954 51.3173 63.0713 51.4621 63.0713H57.1429C57.2691 63.0713 57.3714 62.969 57.3714 62.8428C57.3714 62.7166 57.2685 62.6155 57.1429 62.6029C55.8225 62.47 55.0735 61.2066 54.8571 60.5576V40.5178C54.8571 40.1823 55.2756 40.0291 55.4921 40.2854L74.635 62.9436C74.7034 63.0246 74.804 63.0713 74.91 63.0713H75.0686C75.2674 63.0713 75.4286 62.9101 75.4286 62.7113V38.6197C75.4286 37.4673 76.9115 36.6609 77.8742 36.4006C78.044 36.3546 78.1714 36.2056 78.1714 36.0296V36.009C78.1714 35.8102 78.0103 35.649 77.8114 35.649H72.1142C71.9249 35.649 71.7714 35.8025 71.7714 35.9918C71.7714 36.1811 71.9266 36.3338 72.11 36.3808C73.1772 36.6548 74.5143 38.0705 74.5143 38.6197V51.7618C74.5143 52.1021 74.0858 52.2524 73.8732 51.9868L60.9081 35.7841Z" fill="white"/>
<path d="M63.0857 29.7075C60.4639 29.7075 58.6774 32.4219 58.5249 34.4577C58.5134 34.6108 58.6388 34.7349 58.7924 34.7349C58.9014 34.7349 59 34.671 59.0476 34.5729C59.4478 33.7487 60.1574 32.6782 60.8 32.6782C61.9429 32.6782 64.4572 34.7349 67.8857 34.7349C71.3148 34.7349 72.7343 31.7214 72.8981 29.8385C72.9153 29.6404 72.7531 29.479 72.5543 29.479H72.4086C72.2953 29.479 72.1882 29.5316 72.1267 29.6268C71.6952 30.2942 71.1624 31.5357 69.2572 31.5357C67.4286 31.5357 64.4572 29.7075 63.0857 29.7075Z" fill="white"/>
<path d="M13.2571 35.9918C13.2571 35.8025 13.1037 35.649 12.9144 35.649H0.342779C0.153467 35.649 0 35.8025 0 35.9918C0 36.1811 0.154014 36.3332 0.342929 36.3455C2.18377 36.4649 3.2 37.5423 3.2 38.6197V60.7861C3.2 62.1464 1.21667 62.3499 0.341952 62.3804C0.152755 62.387 0 62.5392 0 62.7285C0 62.9178 0.148262 63.0713 0.337574 63.0713C3.18623 63.0717 13.0969 63.0811 14.6286 63.2998C16 63.4957 21.9429 63.7569 21.9429 63.7569C22.4 63.7569 22.6286 63.2998 22.6286 62.6143C22.6286 61.9287 22.4 56.9013 22.4 55.5302C22.4 54.2904 22.9606 51.1825 23.237 50.0915C23.2715 49.9553 23.1693 49.8172 23.0289 49.8172C22.9294 49.8172 22.8444 49.8881 22.8245 49.9855C22.6301 50.9357 22.0579 53.0718 21.7143 53.9305C20.9427 55.859 17.3715 62.3857 13.2572 62.3857H10.9714C10.5143 62.3857 10.0571 61.7916 10.0571 61.2431V38.6197C10.0571 37.5437 11.1114 36.4676 12.9143 36.3459C13.1032 36.3332 13.2571 36.1811 13.2571 35.9918Z" fill="white"/>
<path d="M184.457 35.4205C181.808 35.4205 175.109 35.7047 171.771 35.8614C171.579 35.8704 171.429 36.0286 171.429 36.2208V36.4316C171.429 36.6304 171.59 36.7916 171.789 36.7916H172.8C173.531 36.7916 173.943 37.2486 173.943 37.7057C174.019 45.0945 174.126 60.3291 173.943 61.2431C173.79 62.0086 172.878 62.2933 172.228 62.3657C172.039 62.3866 171.886 62.5392 171.886 62.7285C171.886 62.9178 172.039 63.0713 172.228 63.0713H183.886C184.075 63.0713 184.229 62.9178 184.229 62.7285C184.229 62.5392 184.075 62.3857 183.886 62.3857H183.543C181.714 62.3857 181.105 60.5576 181.029 59.6435V37.2486C181.029 36.5174 181.638 36.3346 181.943 36.3346H184.686C186.057 36.3346 188.8 38.1627 188.8 43.1901C188.8 47.533 185.223 49.3311 182.971 49.3686C182.785 49.3717 182.629 49.5179 182.629 49.7037C182.629 49.8889 182.785 50.0356 182.97 50.0237L189.714 49.5887C192 49.4363 196.571 47.8062 196.571 42.5046C196.571 35.8775 187.886 35.4205 184.457 35.4205Z" fill="#151B46"/>
<path d="M184.386 50.5129C184.305 50.2826 184.479 50.0457 184.723 50.0457H191.696C191.872 50.0457 192.022 50.1745 192.053 50.3472C193.526 58.5193 197.727 63.204 199.827 64.5634C199.934 64.6325 200 64.7489 200 64.8761V64.9426C200 65.1613 199.805 65.3295 199.589 65.293C191.003 63.8413 186.001 55.0958 184.386 50.5129Z" fill="#151B46"/>
<path d="M55.3143 71.658C55.3143 71.4592 55.4755 71.298 55.6743 71.298H72.0952C72.2948 71.298 72.4563 71.4522 72.4553 71.6518C72.3822 85.9433 72.4572 114.505 72.4572 117.23C72.4572 119.516 74.2857 121.344 75.2 121.572C79.0611 121.775 87.4027 122.34 100 120.214C101.572 119.949 103.21 119.642 104.914 119.287C121.371 115.859 127.543 107.176 130.057 100.091C131.208 96.8484 134.7 81.9263 136.399 73.6381C136.434 73.4705 136.58 73.3547 136.751 73.3547H136.967C137.182 73.3547 137.351 73.5279 137.326 73.7418C136.961 76.8931 134.479 98.3054 134.171 101.691C133.984 103.748 133.257 114.945 133.943 122.486C133.943 124.086 133.486 125 130.514 125C125.714 125 115.657 123.629 104.457 123.629C104.059 123.629 102.453 123.629 100 123.629C86.3101 123.629 46.2211 123.629 42.1612 123.629C41.9624 123.629 41.8286 123.468 41.8286 123.269V122.442C41.8286 122.224 42.0265 122.056 42.2433 122.081C51.9802 123.179 55.3143 115.31 55.3143 108.775V71.658Z" fill="white"/>
<path d="M88.2286 0.36C88.2286 0.161178 88.0674 0 87.8686 0H41.96C41.7612 0 41.6 0.161177 41.6 0.36V0.491913C41.6 0.71342 41.7974 0.882095 42.0174 0.856309C47.6957 0.190781 55.3143 4.11639 55.3143 13.4826V26.1482C55.3143 26.3471 55.4755 26.5082 55.6743 26.5082H72.0972C72.296 26.5082 72.4572 26.3471 72.4572 26.1482V13.4826C72.9926 2.59756 82.0647 0.116519 87.8123 0.854146C88.032 0.882342 88.2286 0.713421 88.2286 0.491913V0.36Z" fill="white"/>
<path fill-rule="evenodd" clip-rule="evenodd" d="M109.029 62.7285C109.029 62.9178 109.182 63.0713 109.371 63.0713H123.657C127.924 62.6904 136.686 59.8263 136.686 50.5027C136.686 39.7623 128.457 35.438 123.657 35.438C120.414 35.438 117.928 35.3182 115.569 35.438C113.548 35.5406 111.62 35.6385 109.389 35.6482C109.19 35.6491 109.029 35.8102 109.029 36.009V36.2031C109.029 36.4019 109.19 36.5616 109.387 36.5914C110.43 36.75 112 37.6154 112 40.2194V60.1006C112 60.746 111.149 62.2015 109.371 62.3698C109.183 62.3876 109.029 62.5392 109.029 62.7285ZM122.057 36.5631C121.214 36.3524 120.229 36.3346 119.543 36.3346C118.857 36.3346 118.857 36.7916 118.857 37.2486C118.857 37.7057 118.857 61.2431 118.857 61.2431C118.857 62.5229 119.086 62.3857 119.543 62.3857H122.057C125.029 62.3857 128.914 59.6435 129.143 49.3601C129.326 41.1335 124.8 37.2486 122.057 36.5631Z" fill="#151B46"/>
<path fill-rule="evenodd" clip-rule="evenodd" d="M154.057 35.649C148.952 35.649 138.789 38.4369 138.971 50.5027C139.154 62.5686 150.629 65.128 156.8 63.5283C161.668 62.2667 169.326 58.7751 169.143 48.9031C168.974 39.7623 161.143 35.649 154.057 35.649ZM147.886 53.4735C144.584 47.532 143.887 39.0308 148.343 37.2486C151.771 35.8775 156.349 38.6197 160.229 46.1609C164.343 54.159 162.971 60.3291 160.229 61.7002C156.8 63.4141 152.838 62.3857 147.886 53.4735Z" fill="#151B46"/>
<path fill-rule="evenodd" clip-rule="evenodd" d="M79.0857 62.7113C79.0857 62.9101 79.2469 63.0713 79.4457 63.0713H85.3715C85.5608 63.0713 85.7143 62.9178 85.7143 62.7285C85.7143 62.5392 85.5611 62.3848 85.3721 62.3729C84.7639 62.3346 83.8683 62.22 83.4286 62.1572C82.7429 61.7002 82.5143 61.1974 82.5143 60.1006C82.5143 59.1284 82.9931 58.0844 83.3141 57.5414C83.3819 57.4268 83.5098 57.3677 83.6429 57.3705C85.6835 57.4138 91.9982 55.8316 95.0088 54.7306C95.1829 54.6669 95.3776 54.7426 95.4605 54.9084L97.3715 58.7294C97.6 59.1865 97.6 59.6435 97.6 60.1006C97.6 60.5576 97.6 61.2431 97.1429 61.7002C96.7819 62.0611 95.7072 62.344 94.8229 62.5657C94.7087 62.5943 94.6286 62.6969 94.6286 62.8147C94.6286 62.9564 94.7435 63.0713 94.8852 63.0713H100H107.086C107.275 63.0713 107.429 62.9178 107.429 62.7285C107.429 62.5392 107.274 62.3889 107.087 62.3599C106.21 62.2235 105.736 61.5823 105.6 61.2431L100 47.7331L95.1749 36.0927C95.1207 35.9617 94.9946 35.8748 94.8529 35.8707L87.6849 35.6599C87.482 35.6539 87.3143 35.8168 87.3143 36.0197V36.1977C87.3143 36.2858 87.3467 36.371 87.4053 36.4369L89.1429 38.3912C89.5086 38.7569 89.4476 40.2194 89.3715 40.9049C86.781 47.075 81.5086 59.6892 81.1429 60.7861C80.8368 61.7041 79.9757 62.1526 79.3903 62.3191C79.218 62.3682 79.0857 62.5188 79.0857 62.698V62.7113ZM94.4878 53.8206C94.6881 53.7569 94.7882 53.5359 94.7076 53.3418L90.1672 42.4062C90.0435 42.1081 89.6204 42.1109 89.5005 42.4105L84.0833 55.9505C83.9887 56.187 84.1602 56.4379 84.4133 56.4098C86.6101 56.1661 91.7703 54.6853 94.4878 53.8206Z" fill="white"/>
<path d="M107.087 62.3599C106.21 62.2235 105.736 61.5823 105.6 61.2431L100 47.7331V63.0713L107.086 63.0713C107.275 63.0713 107.429 62.9178 107.429 62.7285C107.429 62.5392 107.274 62.3889 107.087 62.3599Z" fill="#151B46"/>
<path d="M130.514 125C125.714 125 115.657 123.629 104.457 123.629H100V120.214C101.572 119.949 103.21 119.642 104.914 119.287C121.371 115.859 127.543 107.176 130.057 100.091C131.208 96.8484 134.7 81.9263 136.399 73.6381C136.434 73.4705 136.58 73.3547 136.751 73.3547H136.967C137.182 73.3547 137.351 73.5279 137.326 73.7418C136.961 76.8931 134.479 98.3054 134.171 101.691C133.984 103.748 133.257 114.945 133.943 122.486C133.943 124.086 133.486 125 130.514 125Z" fill="#151B46"/>
</svg>
