<svg width="438" height="274" viewBox="0 0 438 274" fill="none" xmlns="http://www.w3.org/2000/svg">
<path d="M100 77.5C96.8 77.9 68 78 54 78V79.5C58.5 79.5 60 82 60 84.5C60.1667 99.1667 60 129.5 60 133C60 136.418 55.0001 136.5 54 136.5L54 137.633C54 137.834 54.1589 137.997 54.3605 137.993C62.8406 137.827 80.3738 137.606 85.5 138C89.4409 138.303 98.034 139.008 101.964 139.332C103.083 139.424 104.055 138.585 104.125 137.465C104.438 132.453 105.279 119.583 105.939 114.909C105.97 114.69 105.8 114.5 105.579 114.5H104.827C104.641 114.5 104.486 114.643 104.466 114.827C103.095 127.025 91.6166 134.018 86 136H77C75.4 136 75 134 75 133V110C75 108 76.5 108 77 108H84C85.9467 109.46 89.3145 114.236 90.4148 117.256C90.4679 117.402 90.6046 117.5 90.7595 117.5H91.6225C91.828 117.5 91.9918 117.328 91.982 117.123L91.0163 96.8429C91.0072 96.6509 90.8489 96.5 90.6567 96.5H89.805C89.629 96.5 89.4802 96.6262 89.438 96.797C88.8292 99.2624 85.6003 103.58 84 105.5C81.5 105.5 78.5 105.5 77 105.5C75.3508 105.5 75 104.5 75 104C75 99.5 74.6 85.4 75 83C75.4 80.6 76.1667 80 76.5 80H84.5C95.1633 80.7899 100.855 95.2925 102.441 102.718C102.477 102.885 102.623 103 102.794 103H103.551C103.782 103 103.953 102.788 103.909 102.562C102.941 97.5459 102 82.4245 102 80C102 78 100.667 77.5 100 77.5Z" fill="#151B46"/>
<path d="M133.108 78.1351C133.04 78.0497 132.936 78 132.827 78H111.36C111.161 78 111 78.1612 111 78.36V79.14C111 79.3388 111.161 79.4991 111.36 79.5078C115.12 79.6711 117.015 82.3689 117.5 83.5C117.333 98.8333 117 130.1 117 132.5C117 134.783 113.983 136.343 112.254 136.919C112.103 136.97 112 137.109 112 137.268V137.64C112 137.839 112.161 138 112.36 138H125.14C125.339 138 125.5 137.839 125.5 137.64V137.36C125.5 137.161 125.338 137.001 125.14 136.987C122.164 136.773 120.481 133.943 120 132.5V87.4841C120 87.1486 120.419 86.9955 120.635 87.2518L163.392 137.872C163.461 137.953 163.561 138 163.667 138H164.64C164.839 138 165 137.839 165 137.64V84.5C165 81.833 168.629 80.0128 170.702 79.5578C170.874 79.5201 171 79.371 171 79.195V78.36C171 78.1612 170.839 78 170.64 78H157.36C157.161 78 157 78.1612 157 78.36V79.14C157 79.3388 157.161 79.4984 157.358 79.5253C159.742 79.8509 163 83.2315 163 84.5V114.474C163 114.814 162.572 114.964 162.359 114.699L133.108 78.1351Z" fill="#151B46"/>
<path d="M138 65C132.158 65 128.212 71.1625 128.008 75.6409C127.999 75.8395 128.161 76 128.36 76H128.768C128.909 76 129.037 75.9177 129.097 75.7901C129.958 73.9701 131.556 71.5 133 71.5C135.5 71.5 141 76 148.5 76C156.266 76 159.32 68.9319 159.492 64.8593C159.501 64.6607 159.339 64.5 159.14 64.5H158.18C158.067 64.5 157.96 64.5526 157.895 64.6459C156.926 66.0502 155.843 69 151.5 69C147.5 69 141 65 138 65Z" fill="#151B46"/>
<path d="M29 78.36C29 78.1612 28.8388 78 28.64 78H0.36C0.161178 78 0 78.1612 0 78.36V79.14C0 79.3388 0.161901 79.4994 0.360632 79.5054C4.63341 79.6352 7 82.0676 7 84.5V133C7 136.202 1.97867 136.475 0.357589 136.498C0.158787 136.501 0 136.661 0 136.86V137.64C0 137.839 0.150008 138 0.348831 138C6.00411 138 28.5755 138.011 32 138.5C35 138.929 48 139.5 48 139.5C49 139.5 49.5 138.5 49.5 137C49.5 135.5 49 124.5 49 121.5C49 118.739 50.2707 111.742 50.8629 109.476C50.925 109.238 50.7463 109 50.5006 109H50.3005C50.1265 109 49.978 109.122 49.9438 109.293C49.5341 111.332 48.2608 116.098 47.5 118C45.8123 122.219 38 136.5 29 136.5H24C23 136.5 22 135.2 22 134V84.5C22 82.0691 24.4583 79.6381 28.6395 79.5057C28.8382 79.4994 29 79.3388 29 79.14V78.36Z" fill="#151B46"/>
<path d="M403.5 77.5C397.595 77.5 382.486 78.1458 375.337 78.484C375.145 78.4931 375 78.6511 375 78.8433V80.14C375 80.3388 375.161 80.5 375.36 80.5H378C379.6 80.5 380.5 81.5 380.5 82.5C380.667 98.6667 380.9 132 380.5 134C380.133 135.834 377.776 136.407 376.359 136.489C376.161 136.501 376 136.661 376 136.86V137.64C376 137.839 376.161 138 376.36 138H402.64C402.839 138 403 137.839 403 137.64V136.86C403 136.661 402.839 136.5 402.64 136.5H401.5C397.5 136.5 396.167 132.5 396 130.5V81.5C396 79.9 397.333 79.5 398 79.5H404C407 79.5 413 83.5 413 94.5C413 104.24 404.777 108.13 399.884 108.018C399.675 108.013 399.5 108.177 399.5 108.386V109.116C399.5 109.324 399.676 109.489 399.883 109.475L415 108.5C420 108.167 430 104.6 430 93C430 78.5 411 77.5 403.5 77.5Z" fill="#151B46"/>
<path d="M403.152 109.961C403.074 109.729 403.25 109.5 403.494 109.5H419.696C419.872 109.5 420.022 109.629 420.052 109.802C423.264 128.18 432.782 138.585 437.33 141.397C437.438 141.464 437.5 141.578 437.5 141.705V142.586C437.5 142.805 437.304 142.973 437.088 142.94C417.649 139.96 406.493 119.9 403.152 109.961Z" fill="#151B46"/>
<path d="M121 156.36C121 156.161 121.161 156 121.36 156H158.138C158.338 156 158.499 156.153 158.498 156.352C158.335 187.478 158.5 250.509 158.5 256.5C158.5 261.5 162.5 265.5 164.5 266C174 266.5 195.9 268 229.5 261C265.5 253.5 279 234.5 284.5 219C287.034 211.86 294.753 178.846 298.442 160.782C298.477 160.614 298.623 160.5 298.794 160.5H300.096C300.311 160.5 300.482 160.652 300.458 160.866C299.908 165.603 294.192 214.886 293.5 222.5C293.091 227 291.5 251.5 293 268C293 271.5 292 273.5 285.5 273.5C275 273.5 253 270.5 228.5 270.5C222.68 270.5 99.2277 270.5 91.845 270.5C91.6462 270.5 91.5 270.339 91.5 270.14V267.412C91.5 267.194 91.7003 267.027 91.9168 267.055C113.595 269.778 121 252.408 121 238V156.36Z" fill="#151B46"/>
<path d="M193 0.36C193 0.161178 192.839 0 192.64 0H91.36C91.1612 0 91 0.161178 91 0.36V1.57782C91 1.79933 91.196 1.96842 91.4154 1.93766C103.884 0.189026 121 8.73162 121 29.5V57.64C121 57.8388 121.161 58 121.36 58H158.14C158.339 58 158.5 57.8388 158.5 57.64V29.5C159.687 5.36674 180.048 0.113811 192.587 1.93697C192.806 1.96884 193 1.79933 193 1.57782V0.36Z" fill="#151B46"/>
<path fill-rule="evenodd" clip-rule="evenodd" d="M238.5 137.64C238.5 137.839 238.661 138 238.86 138H270.5C279.833 137.167 299 130.9 299 110.5C299 87 281 77.5383 270.5 77.5383C263.405 77.5383 257.967 77.2762 252.807 77.5383C248.257 77.7695 243.924 77.9896 238.86 77.9996C238.662 78 238.5 78.1612 238.5 78.36V79.64C238.5 79.8388 238.66 79.9989 238.858 80.0137C241.11 80.1813 245 81.9362 245 88V131.5C245 132.958 243.015 136.308 238.861 136.492C238.662 136.501 238.5 136.661 238.5 136.86V137.64ZM267 80C265.157 79.5391 263 79.5 261.5 79.5C260 79.5 260 80.5 260 81.5C260 82.5 260 134 260 134C260 136.8 260.5 136.5 261.5 136.5H267C273.5 136.5 282 130.5 282.5 108C282.9 90 273 81.5 267 80Z" fill="#151B46"/>
<path fill-rule="evenodd" clip-rule="evenodd" d="M337 78C325.833 78 303.6 84.1 304 110.5C304.4 136.9 329.5 142.5 343 139C353.648 136.239 370.4 128.6 370 107C369.63 87 352.5 78 337 78ZM323.5 117C316.278 104 314.752 85.3993 324.5 81.5C332 78.5 342.014 84.5 350.5 101C359.5 118.5 356.5 132 350.5 135C343 138.75 334.333 136.5 323.5 117Z" fill="#151B46"/>
<path fill-rule="evenodd" clip-rule="evenodd" d="M173 137.64C173 137.839 173.161 138 173.36 138H187.14C187.339 138 187.5 137.839 187.5 137.64V136.86C187.5 136.661 187.339 136.5 187.14 136.492C185.835 136.441 183.561 136.152 182.5 136C181 135 180.5 133.9 180.5 131.5C180.5 129.233 181.689 126.788 182.383 125.681C182.454 125.568 182.575 125.508 182.708 125.516C186.944 125.767 201.648 122.074 208.2 119.614C208.374 119.549 208.563 119.627 208.646 119.792L213 128.5C213.5 129.5 213.5 130.5 213.5 131.5C213.5 132.5 213.5 134 212.5 135C211.689 135.811 209.234 136.441 207.272 136.932C207.112 136.972 207 137.116 207 137.281V137.64C207 137.839 207.161 138 207.36 138H234.64C234.839 138 235 137.839 235 137.64V136.86C235 136.661 234.838 136.501 234.64 136.487C232.473 136.331 231.316 134.791 231 134L208.089 78.7152C208.035 78.5842 207.909 78.4973 207.767 78.4931L191.371 78.0109C191.168 78.0049 191 78.1678 191 78.3707V79.3631C191 79.4513 191.032 79.5364 191.091 79.6023L195 84C195.8 84.8 195.667 88 195.5 89.5C189.833 103 178.3 130.6 177.5 133C176.764 135.207 174.563 136.174 173.306 136.445C173.131 136.482 173 136.633 173 136.812V137.64ZM207.134 117.618C207.334 117.554 207.431 117.334 207.351 117.14L196.839 91.8159C196.715 91.5178 196.292 91.5206 196.172 91.8202L183.698 123.006C183.603 123.243 183.772 123.498 184.026 123.481C188.502 123.189 201.06 119.57 207.134 117.618Z" fill="#151B46"/>
</svg>
